<svg width="24" height="26" viewBox="0 0 24 26" fill="none" xmlns="http://www.w3.org/2000/svg">
<path d="M9 10.2917V8.125C9 7.26305 9.31607 6.4364 9.87868 5.8269C10.4413 5.21741 11.2044 4.875 12 4.875C12.7956 4.875 13.5587 5.21741 14.1213 5.8269C14.6839 6.4364 15 7.26305 15 8.125V10.2917C15.0002 10.8623 14.8616 11.423 14.5983 11.9172C14.335 12.4115 13.9562 12.8219 13.5 13.1073V14.4333C13.5001 14.6497 13.5601 14.8612 13.6722 15.0404C13.7843 15.2196 13.9434 15.3583 14.129 15.4386L16.179 16.3269C16.8645 16.6236 17.452 17.1362 17.8658 17.7984C18.2796 18.4606 18.5005 19.242 18.5 20.0417H5.5C5.5 18.4058 6.42 16.9347 7.821 16.328L9.871 15.4397C10.0567 15.3593 10.2159 15.2204 10.3281 15.041C10.4402 14.8616 10.5001 14.6499 10.5 14.4333V13.1073C10.0438 12.8219 9.66501 12.4115 9.40169 11.9172C9.13838 11.423 8.99984 10.8623 9 10.2917Z" stroke="#E9D8A6" stroke-linecap="round" stroke-linejoin="round"/>
</svg>
