<svg width="29" height="29" viewBox="0 0 29 29" fill="none" xmlns="http://www.w3.org/2000/svg">
<path d="M13.3847 19.2653L8.79907 14.6797C10.5021 9.52479 15.3618 5.80005 21.0894 5.80005C21.4697 5.80005 21.8457 5.81612 22.2173 5.84827C22.2487 6.21992 22.2648 6.59628 22.2655 6.97734C22.2655 12.705 18.5432 17.5623 13.3836 19.2653H13.3847Z" stroke="#E9D8A6"/>
<path d="M9.32834 18.7373L8.15223 19.9134M11.0925 20.5015L9.91639 21.6776M7.56417 16.9731L6.38806 18.1493" stroke="#E9D8A6" stroke-linecap="round"/>
<path d="M15.2089 14.0329C15.8585 14.0329 16.3851 13.5063 16.3851 12.8568C16.3851 12.2072 15.8585 11.6807 15.2089 11.6807C14.5594 11.6807 14.0328 12.2072 14.0328 12.8568C14.0328 13.5063 14.5594 14.0329 15.2089 14.0329Z" stroke="#E9D8A6"/>
<path d="M16.385 6.9762L21.0895 11.6806" stroke="#E9D8A6" stroke-linecap="round"/>
<path d="M16.3851 18.1493V22.2657L5.80005 11.6807H9.91644" stroke="#E9D8A6" stroke-linecap="round" stroke-linejoin="round"/>
</svg>
