<svg width="24" height="24" viewBox="0 0 24 24" fill="none" xmlns="http://www.w3.org/2000/svg">
<path d="M6.28571 7.42859H13.1429C13.7491 7.42859 14.3304 7.6694 14.7591 8.09806C15.1878 8.52671 15.4286 9.10809 15.4286 9.7143V14.2857C15.4286 14.8919 15.1878 15.4733 14.7591 15.902C14.3304 16.3306 13.7491 16.5714 13.1429 16.5714H6.28571C5.67951 16.5714 5.09812 16.3306 4.66947 15.902C4.24082 15.4733 4 14.8919 4 14.2857V9.7143C4 9.10809 4.24082 8.52671 4.66947 8.09806C5.09812 7.6694 5.67951 7.42859 6.28571 7.42859ZM15.4286 10.8572L18.1714 8.80002C18.3412 8.67267 18.5431 8.59512 18.7545 8.57606C18.9659 8.557 19.1784 8.59718 19.3682 8.6921C19.5581 8.78702 19.7177 8.93292 19.8293 9.11347C19.9409 9.29401 20 9.50206 20 9.7143V14.2857C20 14.498 19.9409 14.706 19.8293 14.8866C19.7177 15.0671 19.5581 15.213 19.3682 15.3079C19.1784 15.4029 18.9659 15.443 18.7545 15.424C18.5431 15.4049 18.3412 15.3274 18.1714 15.2L15.4286 13.1429V10.8572Z" stroke="#E9D8A6" stroke-linecap="round" stroke-linejoin="round"/>
</svg>
